<mxfile host="app.diagrams.net" modified="2023-10-07T05:33:31.925Z" agent="Mozilla/5.0 (Windows NT 10.0; Win64; x64) AppleWebKit/537.36 (KHTML, like Gecko) Chrome/117.0.0.0 Safari/537.36" etag="g75YP_TRSgC5qGE58S6X" version="22.0.3" type="device">
  <diagram name="Page-1" id="l5HkgzIQC3VBBdhDvF50">
    <mxGraphModel dx="794" dy="456" grid="1" gridSize="10" guides="1" tooltips="1" connect="1" arrows="1" fold="1" page="1" pageScale="1" pageWidth="827" pageHeight="1169" math="0" shadow="0">
      <root>
        <mxCell id="0" />
        <mxCell id="1" parent="0" />
        <mxCell id="sPJFEUceuHt_HIlLNjjZ-1" value="Room" style="shape=umlLifeline;perimeter=lifelinePerimeter;whiteSpace=wrap;html=1;container=1;dropTarget=0;collapsible=0;recursiveResize=0;outlineConnect=0;portConstraint=eastwest;newEdgeStyle={&quot;curved&quot;:0,&quot;rounded&quot;:0};" vertex="1" parent="1">
          <mxGeometry x="260" y="280" width="100" height="620" as="geometry" />
        </mxCell>
        <mxCell id="sPJFEUceuHt_HIlLNjjZ-6" value="" style="html=1;points=[[0,0,0,0,5],[0,1,0,0,-5],[1,0,0,0,5],[1,1,0,0,-5]];perimeter=orthogonalPerimeter;outlineConnect=0;targetShapes=umlLifeline;portConstraint=eastwest;newEdgeStyle={&quot;curved&quot;:0,&quot;rounded&quot;:0};" vertex="1" parent="sPJFEUceuHt_HIlLNjjZ-1">
          <mxGeometry x="45" y="60" width="10" height="230" as="geometry" />
        </mxCell>
        <mxCell id="sPJFEUceuHt_HIlLNjjZ-2" value="User" style="shape=umlLifeline;perimeter=lifelinePerimeter;whiteSpace=wrap;html=1;container=1;dropTarget=0;collapsible=0;recursiveResize=0;outlineConnect=0;portConstraint=eastwest;newEdgeStyle={&quot;curved&quot;:0,&quot;rounded&quot;:0};" vertex="1" parent="1">
          <mxGeometry x="60" y="280" width="100" height="620" as="geometry" />
        </mxCell>
        <mxCell id="sPJFEUceuHt_HIlLNjjZ-5" value="" style="html=1;points=[[0,0,0,0,5],[0,1,0,0,-5],[1,0,0,0,5],[1,1,0,0,-5]];perimeter=orthogonalPerimeter;outlineConnect=0;targetShapes=umlLifeline;portConstraint=eastwest;newEdgeStyle={&quot;curved&quot;:0,&quot;rounded&quot;:0};" vertex="1" parent="sPJFEUceuHt_HIlLNjjZ-2">
          <mxGeometry x="45" y="60" width="10" height="510" as="geometry" />
        </mxCell>
        <mxCell id="sPJFEUceuHt_HIlLNjjZ-3" value="Admin" style="shape=umlLifeline;perimeter=lifelinePerimeter;whiteSpace=wrap;html=1;container=1;dropTarget=0;collapsible=0;recursiveResize=0;outlineConnect=0;portConstraint=eastwest;newEdgeStyle={&quot;curved&quot;:0,&quot;rounded&quot;:0};" vertex="1" parent="1">
          <mxGeometry x="490" y="280" width="100" height="620" as="geometry" />
        </mxCell>
        <mxCell id="sPJFEUceuHt_HIlLNjjZ-17" value="" style="html=1;points=[[0,0,0,0,5],[0,1,0,0,-5],[1,0,0,0,5],[1,1,0,0,-5]];perimeter=orthogonalPerimeter;outlineConnect=0;targetShapes=umlLifeline;portConstraint=eastwest;newEdgeStyle={&quot;curved&quot;:0,&quot;rounded&quot;:0};" vertex="1" parent="sPJFEUceuHt_HIlLNjjZ-3">
          <mxGeometry x="45" y="250" width="10" height="90" as="geometry" />
        </mxCell>
        <mxCell id="sPJFEUceuHt_HIlLNjjZ-23" value="" style="html=1;points=[[0,0,0,0,5],[0,1,0,0,-5],[1,0,0,0,5],[1,1,0,0,-5]];perimeter=orthogonalPerimeter;outlineConnect=0;targetShapes=umlLifeline;portConstraint=eastwest;newEdgeStyle={&quot;curved&quot;:0,&quot;rounded&quot;:0};" vertex="1" parent="sPJFEUceuHt_HIlLNjjZ-3">
          <mxGeometry x="45" y="450" width="10" height="80" as="geometry" />
        </mxCell>
        <mxCell id="sPJFEUceuHt_HIlLNjjZ-4" value="Transaction" style="shape=umlLifeline;perimeter=lifelinePerimeter;whiteSpace=wrap;html=1;container=1;dropTarget=0;collapsible=0;recursiveResize=0;outlineConnect=0;portConstraint=eastwest;newEdgeStyle={&quot;curved&quot;:0,&quot;rounded&quot;:0};" vertex="1" parent="1">
          <mxGeometry x="710" y="280" width="100" height="620" as="geometry" />
        </mxCell>
        <mxCell id="sPJFEUceuHt_HIlLNjjZ-20" value="" style="html=1;points=[[0,0,0,0,5],[0,1,0,0,-5],[1,0,0,0,5],[1,1,0,0,-5]];perimeter=orthogonalPerimeter;outlineConnect=0;targetShapes=umlLifeline;portConstraint=eastwest;newEdgeStyle={&quot;curved&quot;:0,&quot;rounded&quot;:0};" vertex="1" parent="sPJFEUceuHt_HIlLNjjZ-4">
          <mxGeometry x="45" y="360" width="10" height="80" as="geometry" />
        </mxCell>
        <mxCell id="sPJFEUceuHt_HIlLNjjZ-9" value="Request Room" style="html=1;verticalAlign=bottom;endArrow=block;curved=0;rounded=0;entryX=0;entryY=0;entryDx=0;entryDy=5;entryPerimeter=0;exitX=1;exitY=0;exitDx=0;exitDy=5;exitPerimeter=0;" edge="1" parent="1">
          <mxGeometry width="80" relative="1" as="geometry">
            <mxPoint x="115" y="350" as="sourcePoint" />
            <mxPoint x="305" y="350" as="targetPoint" />
            <mxPoint as="offset" />
          </mxGeometry>
        </mxCell>
        <mxCell id="sPJFEUceuHt_HIlLNjjZ-10" value="Return List" style="html=1;verticalAlign=bottom;endArrow=open;dashed=1;endSize=8;curved=0;rounded=0;" edge="1" parent="1">
          <mxGeometry relative="1" as="geometry">
            <mxPoint x="305" y="390" as="sourcePoint" />
            <mxPoint x="115" y="390" as="targetPoint" />
            <mxPoint as="offset" />
          </mxGeometry>
        </mxCell>
        <mxCell id="sPJFEUceuHt_HIlLNjjZ-11" value="Check Room availability" style="html=1;verticalAlign=bottom;endArrow=block;curved=0;rounded=0;" edge="1" parent="1">
          <mxGeometry width="80" relative="1" as="geometry">
            <mxPoint x="115" y="430" as="sourcePoint" />
            <mxPoint x="309.5" y="430" as="targetPoint" />
          </mxGeometry>
        </mxCell>
        <mxCell id="sPJFEUceuHt_HIlLNjjZ-13" value="Return Status" style="html=1;verticalAlign=bottom;endArrow=open;dashed=1;endSize=8;curved=0;rounded=0;" edge="1" parent="1">
          <mxGeometry relative="1" as="geometry">
            <mxPoint x="305" y="470" as="sourcePoint" />
            <mxPoint x="115" y="470" as="targetPoint" />
          </mxGeometry>
        </mxCell>
        <mxCell id="sPJFEUceuHt_HIlLNjjZ-14" value="Booking Room" style="html=1;verticalAlign=bottom;endArrow=block;curved=0;rounded=0;" edge="1" parent="1">
          <mxGeometry width="80" relative="1" as="geometry">
            <mxPoint x="115" y="510" as="sourcePoint" />
            <mxPoint x="309.5" y="510" as="targetPoint" />
          </mxGeometry>
        </mxCell>
        <mxCell id="sPJFEUceuHt_HIlLNjjZ-16" value="Send Booking Information" style="html=1;verticalAlign=bottom;endArrow=block;curved=0;rounded=0;" edge="1" parent="1" source="sPJFEUceuHt_HIlLNjjZ-6" target="sPJFEUceuHt_HIlLNjjZ-17">
          <mxGeometry width="80" relative="1" as="geometry">
            <mxPoint x="370" y="550" as="sourcePoint" />
            <mxPoint x="460" y="550" as="targetPoint" />
            <Array as="points">
              <mxPoint x="430" y="550" />
            </Array>
            <mxPoint as="offset" />
          </mxGeometry>
        </mxCell>
        <mxCell id="sPJFEUceuHt_HIlLNjjZ-18" value="" style="html=1;verticalAlign=bottom;endArrow=open;dashed=1;endSize=8;curved=0;rounded=0;" edge="1" parent="1" source="sPJFEUceuHt_HIlLNjjZ-17" target="sPJFEUceuHt_HIlLNjjZ-5">
          <mxGeometry x="-0.0513" y="-10" relative="1" as="geometry">
            <mxPoint x="530" y="600" as="sourcePoint" />
            <mxPoint x="120" y="600" as="targetPoint" />
            <Array as="points">
              <mxPoint x="420" y="600" />
            </Array>
            <mxPoint as="offset" />
          </mxGeometry>
        </mxCell>
        <mxCell id="sPJFEUceuHt_HIlLNjjZ-19" value="Confirm Booking Status" style="edgeLabel;html=1;align=center;verticalAlign=middle;resizable=0;points=[];" vertex="1" connectable="0" parent="sPJFEUceuHt_HIlLNjjZ-18">
          <mxGeometry x="-0.0298" y="-11" relative="1" as="geometry">
            <mxPoint as="offset" />
          </mxGeometry>
        </mxCell>
        <mxCell id="sPJFEUceuHt_HIlLNjjZ-21" value="Transfer Money" style="html=1;verticalAlign=bottom;endArrow=block;curved=0;rounded=0;" edge="1" parent="1">
          <mxGeometry width="80" relative="1" as="geometry">
            <mxPoint x="115" y="660" as="sourcePoint" />
            <mxPoint x="755" y="660" as="targetPoint" />
          </mxGeometry>
        </mxCell>
        <mxCell id="sPJFEUceuHt_HIlLNjjZ-22" value="Return Transaction Information" style="html=1;verticalAlign=bottom;endArrow=open;dashed=1;endSize=8;curved=0;rounded=0;" edge="1" parent="1" target="sPJFEUceuHt_HIlLNjjZ-5">
          <mxGeometry relative="1" as="geometry">
            <mxPoint x="754.5" y="700" as="sourcePoint" />
            <mxPoint x="160" y="700" as="targetPoint" />
          </mxGeometry>
        </mxCell>
        <mxCell id="sPJFEUceuHt_HIlLNjjZ-24" value="Send Transaction Detail" style="html=1;verticalAlign=bottom;endArrow=block;curved=0;rounded=0;" edge="1" parent="1" source="sPJFEUceuHt_HIlLNjjZ-5">
          <mxGeometry width="80" relative="1" as="geometry">
            <mxPoint x="130" y="750" as="sourcePoint" />
            <mxPoint x="534.5" y="750" as="targetPoint" />
          </mxGeometry>
        </mxCell>
        <mxCell id="sPJFEUceuHt_HIlLNjjZ-25" value="Receipt" style="html=1;verticalAlign=bottom;endArrow=open;dashed=1;endSize=8;curved=0;rounded=0;" edge="1" parent="1">
          <mxGeometry relative="1" as="geometry">
            <mxPoint x="535" y="790" as="sourcePoint" />
            <mxPoint x="115" y="790" as="targetPoint" />
          </mxGeometry>
        </mxCell>
      </root>
    </mxGraphModel>
  </diagram>
</mxfile>
